<?xml version="1.0" encoding="utf-8"?>
<!-- Generator: Adobe Illustrator 22.0.0, SVG Export Plug-In . SVG Version: 6.00 Build 0)  -->
<svg version="1.1" id="图层_1" xmlns="http://www.w3.org/2000/svg" xmlns:xlink="http://www.w3.org/1999/xlink" x="0px" y="0px"
	 viewBox="0 0 1920 1080" style="enable-background:new 0 0 1920 1080;" xml:space="preserve">
<style type="text/css">
	.st0{fill:#ED1C24;}
	.st1{fill:#145C00;}
	.st2{fill:#2E3192;}
	.st3{fill:#F15A24;}
	.st4{fill:#006837;}
	.st5{fill:#662D91;}
	.st6{fill:#9E005D;}
	.st7{fill:#FFFF00;}
	.st8{fill:#00FFFF;}
</style>
<g>
	<rect x="0.6" y="0.5" class="st0" width="962.6" height="541" name='st0'/>
	<path class="st1" d="M962.7,1v540H1.1V1H962.7 M963.7,0H0.1v542h963.6V0L963.7,0z"/>
</g>
<g>
	<rect x="0.5" y="542.5" class="st2" width="962.6" height="541" name='st2'/>
	<path class="st1" d="M962.6,543v540H1V543H962.6 M963.6,542H0v542h963.6V542L963.6,542z"/>
</g>
<g>
	<rect x="964.6" y="0.5" class="st3" width="962.6" height="541" name='st3'/>
	<path class="st1" d="M1926.7,1v540H965.1V1H1926.7 M1927.7,0H964.1v542h963.6V0L1927.7,0z"/>
</g>
<g>
	<rect x="964.5" y="542.5" class="st4" width="962.6" height="541" name='st4'/>
	<path class="st1" d="M1926.6,543v540H965V543H1926.6 M1927.6,542H964v542h963.6V542L1927.6,542z"/>
</g>
<g>
	<rect x="0.6" y="0.5" class="st5" width="962.6" height="541" name='st5'/>
	<path class="st1" d="M962.7,1v540H1.1V1H962.7 M963.7,0H0.1v542h963.6V0L963.7,0z"/>
</g>
<g>
	<rect x="0.5" y="542.5" class="st6" width="962.6" height="541" name='st6'/>
	<path class="st1" d="M962.6,543v540H1V543H962.6 M963.6,542H0v542h963.6V542L963.6,542z"/>
</g>
<g>
	<rect x="964.6" y="0.5" class="st7" width="962.6" height="541" name='st7'/>
	<path class="st1" d="M1926.7,1v540H965.1V1H1926.7 M1927.7,0H964.1v542h963.6V0L1927.7,0z"/>
</g>
<g>
	<rect x="964.5" y="542.5" class="st8" width="962.6" height="541" name='st8'/>
	<path class="st1" d="M1926.6,543v540H965V543H1926.6 M1927.6,542H964v542h963.6V542L1927.6,542z"/>
</g>
</svg>
